<?xml version="1.0" standalone="no"?>
<!DOCTYPE svg PUBLIC "-//W3C//DTD SVG 20010904//EN"
 "http://www.w3.org/TR/2001/REC-SVG-20010904/DTD/svg10.dtd">
<svg version="1.0" xmlns="http://www.w3.org/2000/svg"
 width="1024.000000pt" height="819.000000pt" viewBox="0 0 1024.000000 819.000000"
 preserveAspectRatio="xMidYMid meet">

<g transform="translate(0.000000,819.000000) scale(0.100000,-0.100000)"
fill="#000000" stroke="none">
<path d="M10 4095 l0 -4095 5110 0 5110 0 0 4095 0 4095 -5110 0 -5110 0 0
-4095z m8048 3396 c11 -7 11 -9 -2 -14 -10 -4 -13 -12 -9 -23 5 -13 3 -16 -10
-11 -14 5 -16 2 -11 -18 6 -25 -9 -35 -21 -15 -3 6 -12 10 -18 9 -8 0 -8 -2 1
-6 10 -4 9 -10 -5 -25 -9 -11 -13 -18 -8 -16 6 1 23 -10 39 -25 l29 -27 28 49
c70 121 198 148 320 65 29 -19 72 -37 104 -43 96 -18 161 -61 231 -154 70 -94
96 -143 134 -257 l35 -105 71 -25 c95 -34 133 -58 179 -116 46 -57 61 -75 51
-56 -4 6 -3 12 2 12 5 0 14 11 20 25 6 14 18 25 27 25 8 0 15 5 15 11 0 6 7 9
14 6 11 -4 13 -1 9 10 -4 11 -2 14 5 9 7 -4 12 -2 12 5 0 10 3 10 11 2 9 -9
15 -8 24 0 10 10 9 17 -4 37 -26 37 -33 50 -27 50 4 0 26 -27 50 -60 51 -69
86 -164 85 -229 0 -25 -3 -40 -6 -33 -5 13 -51 -14 -83 -48 -8 -9 -23 -19 -32
-23 -10 -3 -18 -13 -18 -21 0 -21 -40 -96 -51 -96 -10 0 -40 -56 -33 -62 3 -3
-14 -13 -36 -22 -56 -22 -74 -16 -260 88 -177 100 -158 102 -216 -21 -47 -99
-93 -283 -101 -404 -5 -89 -4 -99 10 -93 17 6 167 -90 167 -107 0 -5 8 -17 18
-27 26 -27 53 -90 59 -142 12 -102 -63 -224 -176 -284 -50 -27 -63 -29 -155
-29 -88 -1 -108 3 -157 25 -58 27 -118 89 -138 141 -6 16 -11 56 -11 90 0 79
35 151 108 224 58 57 90 73 103 52 9 -14 11 35 9 186 -1 95 -50 345 -90 465
-36 108 -122 290 -146 311 -11 10 -85 52 -166 95 -184 98 -224 131 -273 225
-31 60 -39 86 -43 144 -6 112 -2 117 257 256 58 32 60 32 79 20z m-5668 -61
c0 -28 -204 -618 -219 -633 -7 -7 -229 350 -246 394 -6 16 26 35 305 182 121
64 160 78 160 57z m3464 -423 c66 -39 115 -72 109 -74 -6 -2 -37 12 -69 30
-33 19 -89 51 -126 71 -37 20 -70 41 -74 47 -13 21 41 -3 160 -74z m-89 -16
c66 -38 152 -86 190 -106 60 -33 206 -116 767 -438 114 -66 175 -126 183 -181
3 -23 4 -448 3 -946 l-3 -905 -34 -17 c-33 -16 -33 -16 -95 21 -33 20 -122 70
-196 111 -74 40 -175 97 -225 125 -76 45 -284 155 -291 155 -1 0 -8 -17 -15
-37 -6 -21 -16 -43 -21 -50 -7 -9 8 -21 54 -44 35 -17 95 -50 133 -73 125 -76
326 -178 338 -173 7 3 30 12 52 21 l40 16 -35 -30 c-41 -36 -44 -31 93 -104
l93 -49 139 68 c77 37 206 100 288 140 l147 73 -107 62 c-60 35 -119 70 -133
80 -14 9 -55 31 -91 48 l-67 32 -7 212 c-4 117 -6 224 -4 237 3 17 16 28 53
42 27 10 54 23 60 29 6 6 13 45 17 88 3 42 13 93 23 114 21 45 78 85 131 93
l40 6 -35 -17 -35 -16 52 -18 c71 -23 96 -43 151 -119 55 -76 65 -127 51 -264
-14 -133 -11 -142 47 -132 l30 5 -7 -67 c-5 -38 -9 -133 -10 -213 l-2 -145
-11 72 c-6 39 -14 75 -18 79 -5 4 -8 2 -8 -3 0 -6 -33 -16 -72 -23 -94 -15
-149 -31 -142 -41 2 -4 -10 -9 -28 -11 -33 -3 -32 -3 42 -52 41 -27 110 -67
153 -88 42 -22 77 -42 77 -45 0 -3 -33 -3 -74 0 -51 5 -92 2 -132 -8 -69 -18
-487 -222 -480 -234 3 -5 70 -43 148 -86 79 -43 151 -85 161 -93 25 -22 22
-59 -5 -68 -13 -3 -258 -123 -545 -265 -287 -143 -526 -259 -533 -259 -22 0
-486 248 -855 458 -121 68 -274 156 -341 193 -67 38 -129 78 -139 89 -18 20
-18 20 16 17 24 -2 53 8 99 33 l65 35 3 471 2 471 -40 1 c-53 2 -118 17 -215
49 -100 32 -164 64 -210 104 l-35 31 0 116 0 116 21 -22 c46 -50 242 -133 379
-161 69 -14 91 -27 71 -40 -8 -5 -21 -5 -30 -1 -9 5 -62 17 -118 27 l-103 19
0 -73 c0 -42 4 -73 10 -73 6 0 10 28 10 65 0 88 18 83 22 -6 l3 -71 59 -19
c32 -10 77 -21 100 -24 23 -4 49 -9 59 -12 16 -4 17 4 15 107 l-3 112 -165 72
c-91 39 -215 97 -276 128 l-111 56 -6 -331 c-4 -182 -8 -412 -8 -511 -1 -100
-4 -170 -6 -156 -3 14 -9 27 -14 31 -11 6 -18 241 -21 714 l-3 350 25 -2 c24
-1 24 -1 -3 10 -59 24 -35 40 326 221 191 96 343 168 336 160 -6 -7 -23 -20
-38 -27 -79 -41 -383 -194 -491 -247 -69 -34 -127 -64 -129 -66 -7 -7 184 -94
196 -90 7 3 12 1 10 -4 -1 -6 52 -35 118 -66 194 -90 282 -134 310 -156 l27
-21 -7 -586 c-3 -322 -9 -599 -12 -615 l-5 -29 63 35 c132 73 807 408 822 408
9 0 50 -15 91 -34 46 -21 73 -29 70 -21 -3 8 -13 16 -22 18 -13 4 -12 5 4 6
18 1 29 15 51 63 2 4 -42 32 -97 63 l-100 57 0 79 c0 43 3 79 6 79 10 0 317
-170 524 -290 361 -210 433 -250 442 -250 7 0 9 297 6 863 l-5 862 -39 26
c-105 71 -1138 649 -1159 649 -3 0 -5 -175 -5 -389 0 -299 3 -391 13 -398 6
-5 45 -24 86 -42 60 -27 75 -31 82 -20 7 11 32 2 121 -45 138 -72 283 -152
403 -221 50 -29 141 -81 204 -116 63 -35 116 -70 119 -76 10 -32 -34 -20 -130
35 -100 57 -285 159 -415 228 -35 18 -112 63 -173 99 -61 36 -115 65 -121 65
-14 0 -311 140 -324 153 -5 5 0 4 12 -2 12 -6 26 -11 31 -11 5 0 10 167 11
395 1 217 4 402 7 410 9 24 56 45 84 39 14 -3 79 -36 145 -73z m3420 -51 c13
-6 5 -7 -25 -3 -25 3 -47 7 -49 9 -9 8 55 2 74 -6z m-5576 -49 c146 -50 189
-76 177 -106 -5 -14 -10 -13 -38 8 -40 30 -136 68 -243 97 -107 29 -107 28
-100 40 12 19 60 10 204 -39z m5626 21 c-3 -3 -11 0 -18 7 -9 10 -8 11 6 5 10
-3 15 -9 12 -12z m-5907 -67 c-29 -24 -59 -43 -65 -40 -7 2 -13 0 -13 -5 0
-19 -149 -79 -198 -80 -13 0 -21 -3 -19 -7 3 -5 1 -17 -4 -28 -7 -17 -8 -17
-8 8 -1 15 -2 30 -3 34 -2 4 20 13 47 21 87 23 158 54 210 91 27 20 53 36 56
36 4 0 11 3 15 8 4 4 14 7 22 7 8 0 -10 -20 -40 -45z m-2033 -185 c84 -26 165
-58 183 -72 13 -11 17 -48 4 -48 -4 0 -17 7 -28 15 -47 32 -363 137 -349 115
6 -10 -70 -73 -142 -116 -59 -35 -128 -62 -179 -67 -17 -2 -37 -8 -44 -12 -8
-5 -11 -3 -8 5 2 7 37 25 78 40 107 39 188 83 240 131 45 40 45 41 110 36 36
-2 97 -14 135 -27z m4856 -221 c150 -80 211 -118 217 -136 8 -26 -31 -10 -204
85 -114 62 -180 105 -182 116 -5 25 10 19 169 -65z m-2727 -11 c20 -37 23 -48
12 -48 -8 0 -21 -6 -28 -12 -60 -56 -120 -98 -150 -103 -40 -8 -49 4 -41 48 5
23 88 118 137 156 10 8 15 20 11 30 -11 29 30 -20 59 -71z m2485 13 c88 -49
348 -190 634 -345 53 -28 69 -48 49 -60 -5 -3 -107 48 -228 113 -120 65 -302
164 -404 219 -108 58 -186 106 -188 116 -6 28 28 18 137 -43z m-4569 -25 c0
-24 -23 -56 -39 -56 -13 0 -18 -5 -15 -14 3 -8 -9 -22 -31 -35 -20 -12 -34
-16 -31 -9 3 7 9 21 12 31 4 9 13 17 20 17 8 0 17 7 20 15 4 8 12 15 19 15 8
0 17 9 20 20 5 17 25 29 25 16z m4765 -206 c77 -42 220 -121 318 -174 134 -74
177 -102 177 -117 0 -10 -5 -19 -11 -19 -7 0 -73 35 -148 79 -75 43 -257 145
-406 226 -148 81 -272 149 -274 151 -2 2 -1 10 3 19 6 18 29 7 341 -165z
m-3023 55 c6 -6 7 -3 2 10 -16 43 10 2 32 -50 30 -76 55 -110 132 -177 51 -46
71 -58 97 -58 19 0 37 -5 40 -10 4 -6 11 -7 17 -4 6 4 5 10 -3 16 -10 7 -8 8
6 4 15 -5 36 7 77 44 31 27 61 50 66 50 6 0 27 24 48 53 21 28 42 57 47 62 16
17 -34 -78 -64 -122 -16 -23 -29 -45 -29 -48 0 -4 22 -28 49 -54 76 -73 99
-138 69 -194 -15 -29 -24 -37 -95 -85 -35 -24 -63 -49 -63 -57 0 -8 15 -25 33
-38 36 -28 261 -137 320 -157 23 -7 41 -21 46 -33 4 -12 7 -102 6 -200 -2
-158 -4 -179 -21 -199 -17 -18 -79 -51 -154 -80 l-25 -10 23 -18 c12 -10 84
-51 160 -91 222 -117 274 -162 85 -73 -259 121 -294 139 -309 155 -14 15 -16
43 -16 163 l1 146 -32 24 c-43 32 -95 58 -213 104 -84 34 -111 40 -181 41 -95
1 -126 11 -149 46 -14 21 -15 31 -6 50 25 53 116 82 169 52 12 -7 35 -30 52
-51 40 -51 37 -48 227 -145 121 -61 163 -88 168 -104 3 -12 6 -77 6 -145 0
-68 3 -122 8 -120 89 43 126 65 139 84 12 19 14 51 11 165 l-3 141 -30 24
c-16 13 -66 38 -110 56 -44 17 -112 49 -151 70 -39 21 -105 47 -147 57 -81 21
-123 40 -172 76 -16 13 -63 34 -104 48 -106 37 -151 88 -151 169 0 28 19 80
20 54 0 -5 9 -1 20 9 13 12 17 21 10 25 -14 9 22 33 73 49 20 7 37 15 37 18 0
4 -23 28 -52 55 -28 26 -48 51 -43 55 4 5 10 2 12 -4 3 -7 10 -13 16 -13 6 0
19 -8 30 -17 19 -18 19 -17 2 22 -33 75 -46 117 -50 164 -2 25 -2 37 1 26 3
-11 10 -24 16 -30z m2277 19 c14 -12 -19 -1 -35 12 -18 14 -18 14 6 3 14 -6
27 -13 29 -15z m716 -186 c290 -158 397 -218 413 -230 13 -11 17 -52 4 -46
-17 7 -304 166 -422 233 -69 40 -169 95 -222 124 -103 55 -113 63 -104 86 4
12 15 9 53 -14 26 -16 152 -85 278 -153z m-4946 89 c13 -23 17 -36 10 -29 -11
10 -20 5 -49 -25 -47 -49 -101 -93 -115 -93 -6 0 -19 6 -29 13 -16 12 -14 17
27 72 47 63 87 102 87 84 0 -5 5 -7 10 -4 6 3 10 1 10 -5 0 -6 5 -8 10 -5 6 4
4 12 -5 21 -19 20 -19 23 3 18 9 -3 28 -24 41 -47z m3841 -114 c11 -10 20 -22
20 -27 0 -5 12 -19 26 -32 16 -16 27 -38 30 -66 6 -48 -12 -102 -32 -94 -9 3
-14 -2 -14 -14 0 -11 6 -21 13 -21 6 -1 -4 -5 -23 -8 -19 -4 -40 -4 -45 0 -15
11 -139 72 -143 71 -1 -1 -19 7 -39 18 -21 11 -43 20 -49 20 -6 0 -19 9 -29
20 -17 19 -15 20 101 76 66 31 126 60 134 65 22 12 28 11 50 -8z m-4180 -13
c0 8 25 -33 55 -91 45 -89 64 -115 117 -161 86 -75 101 -82 135 -64 16 8 39
26 52 40 14 14 32 26 40 26 9 0 36 21 59 47 41 45 42 46 23 12 -26 -44 -26
-49 -2 -49 32 0 108 -76 117 -117 18 -86 -5 -142 -83 -202 -108 -84 -256 -94
-393 -28 -86 42 -139 93 -147 140 -8 51 8 78 68 113 27 16 49 33 49 37 0 5 6
5 13 2 6 -4 -1 4 -18 17 -73 57 -114 97 -105 103 6 4 7 12 4 18 -4 7 10 -6 31
-28 23 -25 32 -31 23 -15 -16 28 -43 124 -52 185 -4 28 -3 34 4 20 6 -14 9
-15 10 -5z m5205 -169 c72 -37 164 -87 205 -111 41 -23 140 -78 220 -122 80
-44 153 -87 162 -95 15 -14 15 -43 -1 -43 -4 0 -109 58 -233 129 -125 71 -276
155 -335 187 -131 70 -163 91 -163 110 0 8 3 14 8 14 4 0 66 -31 137 -69z
m-148 -23 c-3 -8 -6 -5 -6 6 -1 11 2 17 5 13 3 -3 4 -12 1 -19z m-1351 -24
c18 -14 18 -14 -6 -3 -31 14 -36 19 -24 19 6 0 19 -7 30 -16z m1487 -65 c72
-39 157 -86 187 -104 30 -18 118 -66 195 -107 200 -108 240 -132 243 -151 2
-9 -1 -17 -7 -17 -6 0 -71 32 -144 72 -72 39 -175 94 -227 123 -299 161 -379
209 -383 232 -2 13 -3 23 0 23 2 0 63 -32 136 -71z m-60 -93 c586 -322 697
-388 697 -411 0 -17 -21 -20 -35 -6 -6 5 -93 55 -195 112 -102 56 -255 141
-340 189 -197 110 -200 111 -200 132 0 24 2 23 73 -16z m-76 -68 c-3 -7 -5 -2
-5 12 0 14 2 19 5 13 2 -7 2 -19 0 -25z m160 -114 c11 -30 -9 -27 -84 12 -58
29 -77 44 -78 61 -1 20 2 20 77 -18 43 -22 81 -46 85 -55z m-1752 26 c10 -8
15 -31 15 -67 0 -49 -4 -58 -32 -85 -29 -27 -33 -39 -40 -102 -4 -39 -7 -133
-7 -208 -1 -77 -5 -138 -10 -138 -13 0 -22 107 -19 215 1 50 1 116 0 147 l-2
57 -41 11 c-108 29 -120 137 -19 179 31 14 136 7 155 -9z m454 -120 c0 -33 -4
-60 -10 -60 -5 0 -9 30 -9 66 0 37 4 63 9 59 5 -3 10 -32 10 -65z m34 -12 c2
-38 0 -58 -7 -58 -7 0 -10 23 -7 67 4 77 8 74 14 -9z m39 27 c-6 -34 -12 -32
-12 6 0 16 4 28 9 25 4 -3 6 -17 3 -31z m48 9 c0 -8 -4 -14 -10 -14 -5 0 -10
9 -10 21 0 11 5 17 10 14 6 -3 10 -13 10 -21z m37 -16 c-3 -8 -6 -5 -6 6 -1
11 2 17 5 13 3 -3 4 -12 1 -19z m-38 -50 c-1 -37 -2 -39 -9 -18 -12 36 -12 60
0 60 6 0 10 -19 9 -42z m-47 -13 c-6 -34 -12 -32 -12 6 0 16 4 28 9 25 4 -3 6
-17 3 -31z m-232 -69 c41 -19 131 -51 199 -71 117 -33 152 -48 140 -60 -3 -2
-61 9 -128 26 -68 16 -126 27 -129 24 -8 -8 -8 -135 0 -135 4 0 8 25 10 55 2
30 8 55 13 55 6 0 9 -25 7 -60 -1 -36 2 -60 8 -60 6 0 10 26 10 60 0 33 4 60
9 60 13 0 23 -32 13 -39 -12 -8 -8 -94 5 -98 6 -2 8 6 6 22 -3 13 -1 46 3 72
l9 48 5 -75 5 -75 77 -15 c42 -8 80 -18 84 -22 16 -16 -82 -7 -194 18 -173 39
-276 100 -293 172 -10 43 -11 127 -3 159 l6 22 32 -24 c17 -13 65 -40 106 -59z
m1621 48 l69 -36 2 -92 2 -91 3 88 c4 80 12 103 28 77 4 -6 38 -26 76 -45 l69
-35 0 -140 c0 -105 -3 -140 -12 -140 -11 0 -43 20 -134 80 -12 8 -59 37 -103
63 l-81 49 0 129 c0 71 3 129 6 129 3 0 37 -16 75 -36z m-2871 -34 c0 -5 -4
-10 -10 -10 -5 0 -10 5 -10 10 0 6 5 10 10 10 6 0 10 -4 10 -10z m-1162 -112
c20 -11 46 -27 56 -37 14 -12 20 -13 23 -3 3 6 10 12 17 12 7 0 32 10 57 22
48 23 123 34 164 24 20 -5 33 -21 51 -60 14 -30 30 -58 37 -64 7 -5 84 -50
172 -98 l160 -89 180 -5 180 -5 220 -113 c303 -154 419 -219 407 -226 -11 -6
-258 109 -397 185 -44 25 -118 62 -165 83 -84 39 -86 39 -245 45 -157 7 -161
8 -245 45 -47 20 -135 64 -196 96 l-111 59 -69 -6 c-51 -4 -82 -1 -118 11 -75
26 -133 31 -152 15 -9 -8 -35 -23 -57 -34 -44 -22 -61 -59 -51 -102 8 -28 58
-58 374 -224 254 -133 277 -145 420 -213 l96 -46 239 0 240 1 -70 38 c-38 21
-95 52 -126 70 -46 26 -77 34 -168 45 -119 15 -157 31 -167 70 -15 60 41 104
134 105 60 1 104 -20 170 -83 62 -59 191 -142 349 -226 l101 -54 94 47 c51 25
104 53 118 61 35 22 396 196 407 196 4 0 7 -119 5 -265 -1 -146 1 -279 6 -297
8 -30 27 -42 364 -213 l357 -181 38 23 c21 13 59 35 85 48 l47 25 88 -48 c48
-27 118 -65 155 -86 l67 -37 -95 -50 c-52 -27 -140 -77 -197 -110 -136 -80
-206 -112 -221 -101 -44 36 -971 543 -1308 716 -137 70 -248 131 -248 135 0
15 35 39 113 78 l78 39 -48 16 c-38 13 -108 18 -338 22 -159 4 -317 11 -350
17 -33 5 -97 17 -141 25 -69 12 -114 13 -281 4 -110 -6 -266 -9 -349 -8 l-149
3 -115 -54 c-146 -68 -184 -95 -170 -122 6 -10 7 -19 3 -20 -20 -1 117 -57
155 -63 39 -6 56 -1 151 43 184 84 175 83 424 76 228 -5 253 -8 301 -33 27
-13 48 -13 194 3 168 18 289 16 367 -6 43 -12 165 -124 165 -152 0 -27 -14
-27 -78 5 -83 41 -192 44 -297 9 -161 -55 -943 -438 -961 -471 -12 -21 -53
-60 -64 -60 -15 0 -19 14 -9 27 9 10 7 13 -9 13 -24 0 -38 -16 -20 -23 7 -3
-4 -4 -25 -2 -57 4 -68 21 -34 51 23 19 39 24 85 24 52 0 74 8 222 81 91 45
253 123 360 174 160 75 400 203 420 221 2 3 -62 4 -144 3 l-148 -1 -39 38 -40
39 -97 -1 c-53 0 -183 -5 -287 -10 l-190 -9 -95 -46 c-79 -38 -95 -50 -96 -70
-7 -116 -78 -179 -209 -186 -59 -3 -77 0 -115 20 -62 33 -90 76 -90 142 0 51
-1 54 -37 72 -21 11 -44 32 -51 46 -11 23 -10 31 10 67 28 48 57 60 150 60 55
0 82 6 136 31 37 16 119 52 182 78 l115 48 380 -7 c209 -4 391 -10 405 -14 32
-10 -205 119 -493 268 -124 64 -228 124 -233 134 -4 9 -10 39 -13 66 -6 45 -8
50 -35 53 -37 5 -83 37 -91 64 -10 29 11 72 44 92 68 40 144 42 209 5z m6737
-42 c72 -35 185 -145 233 -228 59 -100 85 -191 86 -298 1 -81 -3 -102 -23
-143 -44 -90 -149 -130 -243 -92 -98 39 -205 134 -276 243 -65 103 -94 186
-99 292 -10 193 42 263 192 258 53 -3 84 -10 130 -32z m-4113 -38 c4 -60 2
-76 -6 -67 -8 10 -15 129 -7 129 5 0 11 -28 13 -62z m38 28 c0 -34 -17 -42
-22 -11 -5 25 -1 35 14 35 4 0 8 -11 8 -24z m31 -19 c-8 -8 -11 -7 -11 4 0 20
13 34 18 19 3 -7 -1 -17 -7 -23z m1616 -9 c-3 -7 -5 -2 -5 12 0 14 2 19 5 13
2 -7 2 -19 0 -25z m-1916 -101 c69 -35 154 -60 292 -87 31 -6 57 -16 57 -21 0
-9 -63 -6 -137 7 l-33 6 0 -75 0 -76 53 -10 c28 -5 69 -12 89 -16 21 -3 40
-11 44 -17 12 -18 -171 -2 -251 23 -88 26 -174 72 -211 110 -22 23 -29 40 -32
89 -2 33 -1 79 2 104 l7 44 23 -21 c13 -12 57 -39 97 -60z m296 36 c-3 -10 -5
-2 -5 17 0 19 2 27 5 18 2 -10 2 -26 0 -35z m30 0 c-3 -10 -5 -2 -5 17 0 19 2
27 5 18 2 -10 2 -26 0 -35z m-57 11 c0 -14 -4 -23 -9 -20 -5 3 -7 15 -4 26 7
28 13 25 13 -6z m-50 -219 c0 -36 -4 -65 -10 -65 -6 0 -8 25 -6 63 4 69 4 67
11 67 3 0 5 -29 5 -65z m37 13 c-3 -7 -5 -2 -5 12 0 14 2 19 5 13 2 -7 2 -19
0 -25z m43 0 c0 -5 -4 -8 -10 -8 -5 0 -10 10 -10 23 0 18 2 19 10 7 5 -8 10
-18 10 -22z m40 -9 c0 -5 -4 -9 -10 -9 -5 0 -10 7 -10 16 0 8 5 12 10 9 6 -3
10 -10 10 -16z m-77 -16 c2 -5 -2 -21 -9 -38 l-13 -30 -1 38 c0 33 12 49 23
30z m28 -55 c-9 -20 -10 -18 -10 17 0 31 2 36 9 23 6 -10 7 -25 1 -40z m-332
-29 c72 -46 170 -78 285 -93 149 -20 167 -40 29 -33 l-103 5 0 -78 c0 -44 5
-82 10 -85 6 -4 10 23 10 74 0 54 4 81 11 81 9 0 10 -23 5 -80 -5 -64 -4 -80
7 -80 8 0 14 8 14 18 -1 9 0 43 1 75 2 58 16 77 24 32 3 -13 1 -22 -3 -19 -5
3 -9 -22 -9 -54 l0 -60 65 -7 c36 -3 65 -11 65 -16 0 -17 -153 -10 -230 12
-89 24 -226 93 -246 124 -20 30 -28 102 -19 179 6 62 8 65 23 49 9 -9 37 -29
61 -44z m375 46 c-4 -8 -8 -15 -10 -15 -2 0 -4 7 -4 15 0 8 4 15 10 15 5 0 7
-7 4 -15z m2256 -84 c0 -11 -149 -76 -157 -68 -5 6 132 77 149 77 4 0 8 -4 8
-9z m-848 -46 c-16 -7 -33 -18 -36 -24 -4 -6 -14 -11 -22 -11 -8 0 -12 5 -9
10 10 16 79 49 89 43 5 -3 -5 -11 -22 -18z m-1455 -172 c-2 -21 -4 -4 -4 37 0
41 2 58 4 38 2 -21 2 -55 0 -75z m40 60 c-3 -10 -5 -4 -5 12 0 17 2 24 5 18 2
-7 2 -21 0 -30z m0 -70 c-3 -10 -5 -2 -5 17 0 19 2 27 5 18 2 -10 2 -26 0 -35z
m-414 -7 c69 -53 161 -86 303 -111 138 -23 147 -28 47 -25 -50 1 -53 0 -53
-24 0 -14 -5 -28 -11 -32 -8 -5 -10 3 -7 25 3 19 0 31 -7 31 -7 0 -9 -13 -7
-34 2 -18 -1 -37 -7 -40 -17 -11 -14 -96 3 -96 17 0 41 -28 32 -37 -15 -15
-271 101 -312 142 -22 22 -24 32 -24 125 0 55 3 100 6 100 3 0 20 -11 37 -24z
m4518 -116 l71 -23 -4 -103 c-2 -57 -6 -106 -10 -109 -4 -4 -66 -31 -138 -61
l-132 -54 3 91 4 90 -85 57 c-47 31 -85 64 -85 72 0 8 43 40 98 71 l98 57 54
-33 c30 -18 86 -43 126 -55z m-4202 -74 c-9 -8 -10 -7 -5 7 3 10 7 24 7 30 1
7 3 4 6 -7 3 -10 -1 -23 -8 -30z m3705 -26 c79 -45 89 -59 84 -127 -2 -45 1
-62 15 -75 9 -10 17 -14 17 -9 0 6 -5 13 -11 17 -8 4 -8 9 0 17 7 7 16 6 28
-5 10 -8 44 -29 76 -47 48 -27 57 -37 57 -60 0 -16 3 -48 6 -73 6 -39 10 -46
40 -57 18 -6 47 -25 65 -42 l32 -30 -6 -103 c-7 -118 -11 -110 86 -167 l57
-34 0 -75 c0 -41 -3 -84 -6 -95 -4 -15 -41 -37 -131 -79 -116 -53 -127 -56
-142 -41 -9 9 -11 15 -6 13 14 -4 15 3 15 76 l0 63 -50 31 -50 31 0 -32 c0
-18 -3 -55 -6 -84 l-7 -51 -107 -61 c-59 -34 -112 -61 -119 -61 -8 0 -11 47
-11 158 l0 158 -55 23 c-30 13 -55 27 -55 32 0 12 13 12 26 0 5 -5 19 -12 32
-16 22 -6 22 -5 22 94 l0 100 -45 27 c-25 14 -45 29 -45 32 0 10 119 62 142
62 11 0 47 -16 79 -36 l59 -35 0 -102 c0 -56 4 -108 8 -114 6 -10 26 -4 80 23
l72 36 0 90 c0 99 1 99 -73 61 -16 -8 -30 -13 -31 -11 -33 51 -36 62 -36 142
l0 85 -55 20 c-31 12 -62 21 -69 21 -18 0 -25 -29 -21 -97 1 -32 0 -38 -2 -14
-4 39 -6 42 -26 36 -50 -17 -102 -16 -122 0 l-20 17 20 -8 c11 -4 35 -9 53
-12 l32 -4 0 125 0 125 -42 17 c-24 9 -54 25 -68 35 -22 17 -23 21 -10 34 20
20 141 85 159 86 7 0 37 -13 65 -30z m-4637 -215 c282 -149 560 -302 863 -475
214 -121 267 -150 282 -150 24 0 290 136 461 236 32 19 62 34 68 34 13 0 11
-16 -3 -28 -25 -20 -506 -262 -521 -262 -15 0 -175 85 -382 202 -319 181 -816
450 -925 501 -113 53 -250 129 -250 139 0 13 93 -32 407 -197z m763 23 c19
-11 69 -35 110 -52 41 -18 100 -47 130 -64 51 -30 53 -32 20 -26 -19 4 -43 11
-54 16 -13 7 -16 7 -12 -1 4 -7 -1 -11 -12 -11 -23 0 -86 41 -84 55 1 15 -41
35 -54 25 -11 -10 -154 55 -154 71 0 5 -7 9 -16 9 -30 0 -113 51 -107 66 3 8
1 14 -5 14 -5 0 -12 8 -14 18 -4 15 20 5 106 -41 61 -32 127 -68 146 -79z
m3987 45 c-3 -10 -5 -2 -5 17 0 19 2 27 5 18 2 -10 2 -26 0 -35z m-4985 -77
c3 -14 1 -31 -3 -38 -6 -8 -9 1 -9 25 0 42 6 48 12 13z m106 -45 l-1 -36 -4
33 c-2 17 -8 32 -14 32 -5 0 -9 7 -9 16 0 14 3 14 15 4 9 -7 14 -27 13 -49z
m1292 -9 c0 -10 -41 -35 -47 -28 -3 3 2 8 11 12 9 3 13 10 10 15 -3 5 2 9 10
9 9 0 16 -3 16 -8z m-35 -72 c18 -35 19 -50 4 -50 -17 0 -38 32 -39 58 0 31
17 28 35 -8z m-45 0 c0 -5 -2 -10 -4 -10 -3 0 -8 5 -11 10 -3 6 -1 10 4 10 6
0 11 -4 11 -10z m-1510 -7 c0 -9 -199 -102 -385 -182 -178 -77 -330 -155 -331
-172 0 -8 3 -19 8 -25 13 -18 -16 -36 -43 -26 -13 5 -38 7 -55 5 -39 -6 -60
16 -44 47 14 25 49 40 98 40 24 0 87 24 191 74 221 105 493 232 511 239 23 8
50 8 50 0z m3344 -179 c23 -9 20 -23 -4 -17 -11 3 -20 9 -20 14 0 11 3 11 24
3z m-3288 -49 c18 -13 18 -14 -4 -8 -12 3 -25 9 -28 14 -8 14 10 11 32 -6z
m3463 -22 c70 -24 94 -27 281 -33 185 -5 209 -4 242 12 51 24 69 23 138 -12
100 -51 155 -60 360 -61 290 -2 349 -15 85 -20 -121 -2 -247 -4 -280 -5 -55
-1 -67 3 -141 47 -91 54 -108 58 -156 30 -42 -23 -347 -46 -416 -30 -40 9
-219 99 -198 99 5 0 44 -12 85 -27z m191 -19 c0 -2 -14 -4 -31 -4 -16 0 -28 4
-25 9 5 8 56 3 56 -5z m-537 -18 c18 -8 53 -22 78 -31 25 -9 68 -33 95 -53 27
-21 64 -48 83 -61 35 -25 130 -50 193 -51 20 0 38 -4 40 -9 2 -5 72 -14 157
-20 85 -6 172 -16 195 -22 49 -13 452 -214 462 -230 4 -7 6 -37 5 -68 -2 -86
9 -111 60 -140 54 -30 68 -47 69 -87 0 -77 -122 -129 -213 -90 -44 19 -76 56
-79 93 -2 30 26 77 74 125 13 13 18 34 18 77 0 56 -2 62 -33 85 -44 34 -325
181 -383 201 -76 25 -246 40 -299 25 -25 -7 -42 -17 -39 -22 4 -7 -22 -9 -72
-6 -74 4 -115 16 -174 52 -14 8 -62 32 -107 52 l-82 36 -87 -41 c-48 -23 -117
-62 -153 -85 -36 -24 -81 -51 -100 -61 l-34 -17 84 -45 c46 -24 120 -63 164
-86 44 -22 110 -60 147 -84 37 -23 108 -63 158 -88 159 -80 223 -154 234 -273
10 -101 28 -155 65 -194 50 -51 62 -81 50 -115 -15 -45 -73 -73 -150 -73 -78
0 -106 14 -131 61 -16 31 -17 41 -7 63 7 14 16 26 20 26 4 0 16 16 28 36 15
24 23 61 27 119 7 79 5 87 -18 122 -14 21 -51 54 -82 73 -144 88 -261 165
-264 172 -2 5 -8 6 -13 2 -5 -3 -9 0 -9 5 0 6 -6 11 -14 11 -8 0 -22 7 -30 16
-9 9 -35 26 -59 38 -107 57 -267 158 -275 173 -9 15 -28 7 -166 -60 -86 -42
-156 -78 -156 -80 0 -2 18 -17 40 -32 59 -41 48 -52 -16 -15 -63 35 -77 34
-161 -16 -54 -31 -52 -36 63 -106 l83 -51 7 -58 c6 -57 8 -59 50 -79 24 -12
58 -31 76 -44 18 -12 99 -61 181 -110 81 -49 147 -93 147 -97 0 -5 15 -6 33
-2 29 6 31 5 18 -11 -8 -9 -12 -18 -10 -20 46 -35 274 -136 310 -136 44 0 175
-52 201 -80 53 -57 46 -125 -18 -166 -35 -24 -138 -32 -199 -17 -50 12 -87 45
-152 131 -13 16 -64 62 -115 101 -51 40 -120 94 -153 121 -35 29 -129 84 -225
132 -90 46 -176 93 -190 104 -14 12 -52 38 -85 59 -33 21 -72 50 -87 65 -15
14 -64 45 -109 69 -68 36 -88 43 -122 39 -38 -5 -199 -79 -390 -181 l-68 -37
-98 49 c-53 27 -121 63 -150 81 -30 17 -55 29 -57 27 -2 -2 -7 -31 -10 -65 -5
-40 -11 -62 -20 -62 -9 0 -11 17 -7 73 l6 72 -104 62 c-57 34 -122 69 -144 78
-22 9 -103 48 -179 87 -91 45 -146 68 -160 64 -22 -6 -246 -122 -258 -134 -3
-4 -8 -114 -10 -244 -3 -223 -2 -238 16 -251 10 -8 82 -49 160 -92 323 -178
675 -381 676 -388 0 -11 -64 18 -190 87 -491 271 -610 337 -645 363 l-40 29 0
249 0 250 142 75 142 75 -52 29 c-29 16 -81 45 -117 66 -36 20 -102 52 -147
71 -46 19 -83 39 -83 44 0 6 -59 37 -131 70 -72 33 -135 66 -141 73 -16 19 5
37 78 66 l65 26 43 -19 c24 -10 46 -23 50 -29 3 -6 -24 -25 -61 -44 -84 -42
-58 -49 32 -9 37 17 73 31 80 31 7 0 38 -12 69 -26 56 -26 57 -26 39 -46 -10
-11 -40 -33 -68 -49 -71 -41 -39 -36 48 8 l74 36 59 -33 c32 -18 69 -38 81
-44 13 -6 23 -13 23 -16 0 -3 -29 -20 -65 -39 -36 -18 -63 -36 -60 -39 3 -3
38 12 78 33 l72 38 93 -47 c86 -43 113 -66 77 -66 -17 0 -118 -60 -112 -67 3
-2 39 13 80 33 l76 38 157 -80 c86 -43 157 -83 156 -89 0 -5 -28 -25 -63 -44
-34 -19 -58 -36 -52 -38 12 -4 94 35 128 60 18 14 25 12 77 -14 32 -16 64 -29
73 -29 8 0 15 -7 15 -15 0 -8 5 -15 12 -15 7 0 54 -25 104 -55 51 -30 96 -55
101 -55 4 0 14 -9 21 -20 17 -28 36 -25 90 12 63 44 372 204 513 266 65 29
131 52 148 52 22 0 29 4 25 14 -4 9 37 35 135 85 77 39 144 71 149 71 5 0 30
-16 56 -35 51 -40 58 -38 21 7 -27 32 -29 37 -17 54 11 18 129 74 154 74 12 0
49 -16 81 -36 71 -44 87 -39 20 7 -46 32 -63 47 -63 60 0 4 24 19 54 35 l54
28 81 -38 c45 -21 84 -36 87 -33 3 2 -25 21 -61 42 -37 20 -64 40 -61 43 7 7
129 90 134 91 2 1 18 -5 35 -13z m-2928 -36 c3 -5 2 -10 -4 -10 -5 0 -13 5
-16 10 -3 6 -2 10 4 10 5 0 13 -4 16 -10z m-794 -147 c-21 -4 -18 -9 35 -42
56 -36 103 -81 151 -146 23 -31 31 -19 12 17 -8 15 -8 19 0 14 15 -10 14 4 -3
23 -7 9 -30 41 -50 71 l-37 55 46 -49 c71 -75 80 -99 79 -191 -1 -45 -11 -115
-23 -159 -24 -91 -18 -111 31 -101 26 6 28 5 24 -17 -3 -12 -10 -76 -16 -142
-5 -65 -12 -121 -14 -124 -3 -2 -8 14 -12 36 -6 38 -8 40 -38 38 -17 -2 -38
-5 -46 -8 -52 -20 -111 -30 -122 -21 -7 6 -23 13 -36 16 -18 4 -22 2 -18 -9
14 -37 -79 -35 -181 4 -29 11 -53 18 -53 15 0 -2 70 -38 156 -80 85 -41 153
-77 151 -79 -3 -4 -230 99 -307 139 -25 13 -25 15 -27 142 -1 72 -2 134 -3
139 0 5 -6 4 -13 -2 -19 -16 -67 -33 -67 -24 0 5 20 19 45 31 l45 22 0 59 c0
55 2 61 28 74 15 8 43 16 62 18 42 4 48 16 49 88 2 133 50 200 141 198 25 -1
28 -2 11 -5z m2339 -43 c0 -5 -5 -10 -11 -10 -5 0 -7 5 -4 10 3 6 8 10 11 10
2 0 4 -4 4 -10z m-1050 -62 c22 -13 40 -27 40 -31 0 -7 -80 33 -99 49 -16 14
27 0 59 -18z m110 -70 c0 -5 -9 -4 -20 2 -11 6 -20 12 -20 14 0 2 9 2 20 -1
11 -3 20 -9 20 -15z m80 -38 c0 -5 -2 -10 -4 -10 -3 0 -8 5 -11 10 -3 6 -1 10
4 10 6 0 11 -4 11 -10z m-2802 -95 c82 -69 55 -253 -54 -374 -88 -98 -213
-120 -272 -48 -35 42 -31 190 8 266 28 56 105 136 152 160 61 30 128 28 166
-4z m5512 -25 c0 -23 -123 -38 -165 -20 -24 10 -28 9 63 14 41 3 76 7 80 10 9
9 22 7 22 -4z m303 -90 c47 -22 89 -40 94 -40 19 0 41 -35 59 -92 12 -40 32
-74 66 -110 39 -42 48 -59 48 -88 0 -70 -53 -110 -147 -110 -136 0 -199 103
-112 186 41 38 60 77 62 124 2 47 -10 61 -95 117 -60 40 -76 53 -64 53 2 0 42
-18 89 -40z m-4237 -68 c-13 -12 -16 7 -9 54 l8 49 3 -49 c2 -26 1 -51 -2 -54z
m1620 87 c3 -6 1 -16 -5 -22 -9 -9 -14 -8 -21 3 -9 15 -4 30 10 30 5 0 12 -5
16 -11z m94 -69 c0 -5 8 -11 18 -14 9 -4 28 -16 42 -27 18 -15 11 -13 -25 7
-86 48 -105 61 -99 67 8 8 64 -21 64 -33z m-2394 -35 c-11 -8 -25 -15 -30 -15
-6 1 0 7 14 15 32 19 40 18 16 0z m-65 -19 c26 0 10 -25 -25 -41 -23 -10 -26
-14 -11 -14 36 -2 1 -20 -43 -22 -49 -3 -72 13 -56 39 16 25 76 53 99 45 11
-4 27 -7 36 -7z m-1309 -26 c26 -16 53 -30 58 -30 7 0 9 -77 8 -217 l-3 -218
-228 -117 c-125 -65 -238 -120 -250 -123 l-22 -6 2 267 c1 147 6 271 10 275 4
4 82 47 173 95 91 47 169 90 175 95 14 14 24 11 77 -21z m2168 -60 c0 -25 -5
-52 -10 -60 -6 -10 -9 9 -8 58 2 77 18 79 18 2z m1090 -187 l0 -93 149 -75
c82 -41 194 -101 248 -133 54 -32 151 -87 216 -122 100 -54 136 -80 111 -80
-10 0 -215 111 -284 154 -36 22 -155 86 -265 141 l-200 101 -3 89 c-3 101 4
148 19 124 5 -7 9 -56 9 -106z m1503 -31 c59 -26 95 -76 108 -148 14 -83 2
-114 -46 -114 -28 0 -38 -5 -47 -26 -11 -23 -17 -25 -49 -21 -44 6 -79 -14
-79 -44 0 -12 -4 -17 -11 -14 -6 4 -10 1 -8 -6 3 -28 -1 -38 -21 -44 -11 -3
-20 -13 -20 -21 0 -8 -6 -14 -14 -14 -8 0 -22 -10 -30 -22 l-16 -22 0 25 c0
78 60 216 118 272 35 34 87 50 114 36 22 -12 41 -56 34 -76 -4 -8 -1 -11 5 -7
15 9 3 63 -18 86 -10 11 -30 18 -53 18 -99 0 -218 -152 -243 -310 -7 -39 -16
-69 -22 -67 -17 6 -55 80 -55 110 0 15 9 53 20 84 50 143 164 272 270 304 23
7 23 7 3 8 -37 2 -71 -17 -125 -66 -72 -67 -133 -154 -153 -216 -9 -28 -19
-59 -22 -67 -9 -25 -24 41 -17 74 l6 29 -33 -37 c-18 -21 -58 -55 -88 -76 -92
-62 -94 -66 -92 -172 2 -117 27 -338 46 -413 29 -109 54 -152 132 -225 42 -39
86 -73 100 -76 29 -8 56 15 116 96 22 30 49 61 58 68 58 41 174 389 185 552 5
82 14 130 24 130 13 0 30 -51 30 -93 0 -128 -58 -315 -158 -511 -37 -74 -61
-131 -53 -128 10 4 12 1 6 -8 -5 -9 -4 -11 3 -6 6 4 29 -5 51 -19 23 -14 43
-25 47 -25 8 0 56 -53 73 -81 50 -82 49 -70 6 -156 -21 -43 -41 -80 -44 -83
-4 -3 -12 -16 -19 -30 -27 -51 -87 -87 -164 -100 -86 -15 -314 -7 -398 14
-120 29 -192 88 -232 188 -29 73 -19 178 16 178 10 0 13 6 9 17 -4 11 -3 14 5
9 11 -6 17 11 14 36 -2 11 53 50 91 64 23 8 22 19 -7 68 -28 49 -43 91 -28 82
6 -4 8 3 5 16 -4 21 -3 21 7 5 6 -10 9 -24 6 -32 -3 -9 0 -12 9 -9 15 6 32
-37 21 -54 -5 -9 54 -76 61 -68 2 2 -5 35 -16 72 -26 88 -71 484 -71 620 0 17
19 34 77 70 148 92 176 132 132 188 -20 26 -49 35 -49 16 0 -5 4 -10 9 -10 5
0 11 -9 14 -20 3 -13 0 -20 -10 -20 -8 0 -12 -3 -10 -7 3 -5 -20 -8 -50 -9
-53 -1 -54 0 -33 16 21 16 21 17 4 25 -11 4 -127 7 -259 7 -150 -1 -232 2
-219 8 12 5 140 10 283 13 255 4 262 4 277 25 22 32 55 27 94 -13 39 -40 50
-43 50 -16 0 28 90 132 147 170 43 29 54 32 100 28 28 -3 71 -14 96 -25z
m-2888 -62 c3 -6 -1 -7 -9 -4 -18 7 -21 14 -7 14 6 0 13 -4 16 -10z m-1363
-35 c38 -20 126 -67 195 -106 70 -39 217 -120 327 -179 332 -177 340 -182 369
-208 16 -16 27 -36 26 -51 0 -22 -2 -23 -8 -7 -6 17 -50 -3 -417 -189 -225
-114 -459 -234 -520 -266 -61 -33 -116 -59 -122 -59 -10 0 -183 93 -395 213
-93 52 -100 54 -125 41 -15 -7 -67 -31 -115 -53 -87 -40 -88 -40 -107 -21 -11
11 -38 29 -62 41 -24 12 -66 36 -94 54 -35 22 -56 30 -65 24 -19 -12 -46 -12
-34 0 18 17 177 101 191 101 31 0 11 -20 -46 -46 -33 -15 -60 -31 -60 -36 0
-8 60 -44 156 -95 l52 -27 73 36 c41 20 83 40 94 43 19 6 19 7 -5 19 -254 129
-460 241 -457 249 3 10 264 147 688 361 136 69 277 141 314 160 36 20 69 36
72 36 3 0 37 -16 75 -35z m4270 -432 c-6 -3 -9 -10 -6 -15 4 -7 2 -8 -4 -4 -6
4 -20 -1 -31 -11 -11 -9 -27 -18 -36 -19 -31 -5 -46 -14 -40 -24 3 -5 4 -10 1
-10 -2 0 -12 -3 -20 -6 -12 -5 -15 -2 -10 12 5 15 4 16 -4 4 -8 -10 -8 -18 0
-27 8 -10 7 -12 -5 -8 -8 4 -18 1 -23 -6 -4 -7 -3 -10 3 -6 6 4 14 0 17 -9 4
-9 2 -13 -5 -8 -19 11 -27 -16 -14 -45 7 -14 16 -37 20 -51 5 -21 -32 32 -111
157 -7 10 -14 16 -17 13 -3 -3 14 -46 38 -96 51 -107 57 -130 33 -126 -10 2
-18 -1 -18 -7 0 -16 -203 -221 -219 -221 -8 0 -22 -7 -31 -15 -16 -14 -19 -13
-36 22 -25 52 -26 164 -1 190 23 23 127 183 127 194 0 5 4 9 9 9 5 0 11 13 14
29 7 34 34 64 49 55 16 -10 76 -17 149 -17 54 0 75 5 120 30 30 16 56 27 59
25 3 -3 -1 -7 -8 -9z m3862 -1345 c8 -42 102 -136 144 -144 42 -9 40 -18 -7
-32 -47 -15 -126 -96 -136 -140 -3 -18 -10 -32 -15 -32 -5 0 -12 14 -15 32
-10 44 -89 125 -136 140 -47 14 -49 23 -9 32 43 8 127 90 142 137 14 47 23 49
32 7z"/>
<path d="M8188 7414 c-40 -21 -78 -93 -85 -158 -6 -61 -13 -62 -47 -8 -32 50
-124 105 -177 105 -80 0 -122 -55 -116 -148 8 -113 78 -210 201 -279 51 -29
75 -36 100 -33 44 6 50 10 109 74 65 69 125 86 189 52 40 -21 256 -226 286
-272 15 -22 39 -58 54 -81 26 -38 67 -133 72 -165 4 -20 298 -182 343 -188 31
-4 42 -1 58 17 17 19 20 36 20 119 0 86 -3 103 -31 161 -54 114 -125 176 -236
206 -29 7 -58 21 -65 30 -7 9 -24 53 -39 98 -38 117 -108 246 -162 302 -58 60
-146 105 -215 112 -35 3 -60 12 -77 27 -14 12 -35 28 -47 34 -30 15 -103 13
-135 -5z"/>
<path d="M8423 6479 c-5 -5 -19 -11 -30 -12 -15 -1 -18 -7 -15 -25 4 -18 7
-21 14 -10 6 9 7 6 3 -9 -3 -12 0 -33 7 -45 7 -13 11 -29 10 -35 -2 -7 1 -13
7 -13 5 0 12 6 14 13 3 6 6 2 6 -11 1 -15 5 -21 12 -16 8 5 10 -2 7 -23 -2
-18 0 -30 7 -30 6 0 10 10 7 22 -2 15 1 22 12 22 15 0 20 -10 17 -29 0 -5 4
-8 9 -8 6 0 10 7 10 15 0 18 12 19 28 3 7 -7 12 -9 12 -5 0 4 9 3 20 -3 15 -8
26 -7 43 2 12 7 25 12 28 11 3 -1 18 23 33 53 20 41 24 59 17 72 -8 13 -10 14
-11 2 0 -13 -1 -13 -10 0 -7 10 -10 11 -10 2 0 -7 7 -15 16 -19 10 -3 12 -8 5
-12 -6 -4 -12 -16 -14 -26 -3 -24 -26 -65 -27 -49 0 6 3 14 7 18 20 19 10 78
-12 74 -8 -2 -20 5 -27 14 -9 12 -30 19 -63 20 -27 2 -56 9 -64 16 -7 7 -23
10 -35 7 -11 -2 -15 -2 -8 1 6 3 10 10 6 15 -7 12 -18 11 -31 -2z m187 -53 c0
-11 -19 -15 -25 -6 -3 5 1 10 9 10 9 0 16 -2 16 -4z"/>
<path d="M2132 7290 c-100 -49 -182 -94 -182 -100 0 -6 42 -79 94 -163 51 -84
99 -163 106 -176 11 -22 19 -4 91 213 79 237 100 316 82 316 -5 0 -91 -40
-191 -90z"/>
<path d="M4340 5840 c-8 -5 -10 -10 -5 -10 6 0 17 5 25 10 8 5 11 10 5 10 -5
0 -17 -5 -25 -10z"/>
<path d="M4345 5810 c3 -5 8 -10 11 -10 2 0 4 5 4 10 0 6 -5 10 -11 10 -5 0
-7 -4 -4 -10z"/>
<path d="M4500 5737 c0 -6 87 -52 128 -68 15 -6 22 -5 22 4 0 14 -51 42 -92
51 -14 3 -33 9 -42 12 -9 3 -16 4 -16 1z"/>
<path d="M4661 5655 c3 -2 57 -28 120 -57 63 -29 122 -58 132 -64 17 -10 18
-31 17 -300 0 -159 -3 -426 -6 -593 -5 -237 -4 -303 6 -299 9 3 13 146 16 619
l4 615 -40 22 c-39 20 -70 21 -70 0 0 -6 7 -8 15 -5 8 4 17 2 20 -3 4 -6 14
-10 24 -10 10 0 24 -7 31 -15 16 -20 6 -19 -33 2 -18 9 -37 17 -43 17 -6 1
-26 8 -45 17 -19 9 -45 21 -59 27 -14 5 -38 15 -53 21 -30 12 -44 14 -36 6z"/>
<path d="M7191 5536 c2 -2 22 -6 44 -9 28 -5 34 -4 20 3 -19 8 -73 14 -64 6z"/>
<path d="M7183 5508 c-28 -14 -43 -63 -43 -145 0 -60 1 -63 24 -63 35 0 95
-24 176 -69 40 -23 75 -39 78 -36 3 2 7 26 9 52 10 99 -38 189 -123 234 -62
33 -93 40 -121 27z"/>
<path d="M7280 5516 c0 -2 7 -7 16 -10 8 -3 12 -2 9 4 -6 10 -25 14 -25 6z"/>
<path d="M6140 4851 c0 -30 6 -44 22 -55 32 -23 38 -20 38 19 0 34 -27 75 -50
75 -5 0 -10 -18 -10 -39z"/>
<path d="M5485 4570 c-187 -93 -401 -201 -475 -241 -74 -39 -147 -78 -162 -86
-16 -8 -28 -16 -28 -19 0 -2 19 -13 41 -25 32 -16 44 -18 53 -8 8 9 8 10 -1 5
-7 -4 -13 -3 -13 2 0 4 15 16 34 25 31 14 68 57 50 57 -3 0 -1 7 6 15 7 8 18
15 24 15 6 0 3 -7 -7 -14 -15 -12 -15 -14 -2 -19 9 -4 19 2 26 15 10 19 12 19
20 5 11 -18 29 -14 70 14 14 10 29 16 32 12 4 -3 12 -1 19 5 11 8 88 51 168
93 40 21 130 59 139 59 6 0 11 5 11 10 0 5 3 9 8 8 4 -1 16 1 28 5 15 5 43 -5
100 -37 85 -48 134 -53 59 -5 -24 15 -58 35 -75 44 -67 35 -17 52 53 18 26
-13 53 -21 59 -17 6 4 8 3 5 -4 -9 -13 160 -105 175 -96 7 4 8 3 4 -4 -8 -14
42 -40 66 -35 9 2 19 -1 23 -6 3 -6 12 -11 18 -11 7 0 -1 9 -17 19 -16 11 -36
17 -44 13 -11 -4 -13 -2 -7 8 5 8 4 11 -3 6 -5 -3 -12 -2 -14 3 -1 5 -64 42
-138 84 -74 41 -136 79 -138 85 -13 40 137 -28 458 -210 133 -75 167 -93 160
-85 -7 8 -200 123 -388 232 -84 48 -151 93 -149 99 7 21 35 17 83 -12 128 -76
488 -276 500 -278 8 -1 12 2 8 7 -3 5 -9 7 -14 4 -4 -3 -10 -1 -12 4 -1 5 -64
42 -138 84 -222 124 -331 190 -349 211 -14 16 -7 36 12 36 7 0 98 -50 202
-111 105 -61 217 -125 250 -141 32 -17 104 -56 160 -88 180 -103 242 -134 221
-111 -10 11 -23 18 -27 15 -5 -3 -9 -1 -9 4 0 5 -18 17 -39 28 -22 10 -37 23
-34 28 4 5 1 6 -5 3 -11 -8 -74 22 -165 77 l-58 34 31 14 c17 7 28 18 26 23
-2 6 5 11 15 11 14 0 15 -3 7 -13 -6 -8 -8 -16 -4 -20 3 -3 6 -1 6 6 0 7 5 9
12 5 7 -4 8 -3 4 4 -9 15 -1 15 27 1 12 -6 18 -7 12 -1 -14 14 -336 193 -464
258 -61 32 -118 54 -136 53 -18 0 -165 -67 -370 -169z m852 -111 c-9 -6 -14
-16 -11 -22 5 -8 2 -7 -7 1 -12 11 -12 14 1 22 8 5 20 10 25 10 6 -1 2 -5 -8
-11z"/>
<path d="M5490 4473 c0 -14 167 -100 167 -87 0 7 -4 11 -9 8 -4 -3 -8 -1 -8 5
0 10 -121 81 -139 81 -6 0 -11 -3 -11 -7z"/>
<path d="M5420 4430 c0 -9 14 -14 33 -11 4 0 7 -4 7 -10 0 -5 5 -7 10 -4 6 3
10 1 10 -6 0 -10 3 -10 12 -1 9 9 8 15 -8 27 -22 16 -64 20 -64 5z"/>
<path d="M5346 4401 c-4 -5 -2 -12 3 -15 5 -4 12 -2 15 3 4 5 2 12 -3 15 -5 4
-12 2 -15 -3z"/>
<path d="M6355 4400 c-3 -5 -2 -10 4 -10 5 0 13 5 16 10 3 6 2 10 -4 10 -5 0
-13 -4 -16 -10z"/>
<path d="M6497 4399 c7 -7 15 -10 18 -7 3 3 -2 9 -12 12 -14 6 -15 5 -6 -5z"/>
<path d="M5525 4390 c-4 -6 -12 -7 -18 -4 -7 4 -9 3 -4 -1 11 -13 47 -17 47
-6 0 15 -18 23 -25 11z"/>
<path d="M5782 4392 c-8 -6 0 -15 27 -30 26 -15 42 -19 46 -12 4 6 3 10 -2 9
-22 -4 -34 2 -27 14 4 6 4 9 -1 5 -4 -4 -13 -1 -19 7 -6 9 -16 11 -24 7z"/>
<path d="M5383 4375 c0 -8 4 -12 9 -9 5 3 6 10 3 15 -9 13 -12 11 -12 -6z"/>
<path d="M5410 4376 c0 -2 7 -7 16 -10 8 -3 12 -2 9 4 -6 10 -25 14 -25 6z"/>
<path d="M5279 4359 c-12 -8 -11 -11 6 -21 27 -16 53 -20 60 -8 9 14 -49 40
-66 29z"/>
<path d="M5670 4366 c0 -2 7 -7 16 -10 8 -3 12 -2 9 4 -6 10 -25 14 -25 6z"/>
<path d="M5886 4332 c-3 -5 1 -9 9 -9 8 0 12 4 9 9 -3 4 -7 8 -9 8 -2 0 -6 -4
-9 -8z"/>
<path d="M5347 4323 c-12 -12 -7 -22 8 -17 8 4 15 10 15 15 0 11 -14 12 -23 2z"/>
<path d="M5750 4326 c0 -3 9 -10 19 -16 15 -7 22 -7 27 2 4 7 4 10 -1 6 -4 -4
-16 -3 -26 3 -11 5 -19 7 -19 5z"/>
<path d="M6657 4309 c7 -7 15 -10 18 -7 3 3 -2 9 -12 12 -14 6 -15 5 -6 -5z"/>
<path d="M5237 4293 c-10 -10 -8 -25 2 -19 5 4 11 1 13 -5 2 -7 9 -5 17 5 12
14 12 16 -4 10 -13 -5 -16 -4 -11 4 8 13 -6 17 -17 5z"/>
<path d="M6116 4278 c3 -5 10 -6 15 -3 13 9 11 12 -6 12 -8 0 -12 -4 -9 -9z"/>
<path d="M6371 4283 c-1 -18 36 -36 45 -21 4 7 3 8 -4 4 -7 -4 -12 -2 -12 4 0
6 -4 9 -9 6 -5 -4 -12 0 -14 6 -4 10 -6 10 -6 1z"/>
<path d="M6145 4270 c-6 -9 8 -14 28 -11 4 0 7 -3 7 -9 0 -5 10 -14 23 -20 20
-10 20 -10 5 3 -10 8 -15 16 -13 19 3 3 -6 10 -20 16 -15 7 -27 8 -30 2z"/>
<path d="M5185 4240 c-4 -6 -12 -7 -18 -4 -8 5 -8 3 0 -6 7 -8 30 -15 50 -17
28 -2 34 0 23 8 -38 25 -49 29 -55 19z"/>
<path d="M6471 4223 c-1 -17 16 -25 25 -12 4 7 3 9 -4 5 -5 -3 -13 0 -15 6 -4
9 -6 10 -6 1z"/>
<path d="M6568 4163 c7 -3 16 -2 19 1 4 3 -2 6 -13 5 -11 0 -14 -3 -6 -6z"/>
<path d="M5340 3936 c0 -2 9 -6 20 -9 11 -3 18 -1 14 4 -5 9 -34 13 -34 5z"/>
<path d="M5176 3811 c-4 -5 3 -7 14 -4 23 6 26 13 6 13 -8 0 -17 -4 -20 -9z"/>
<path d="M2035 3689 c-10 -15 3 -25 16 -12 7 7 7 13 1 17 -6 3 -14 1 -17 -5z"/>
<path d="M8652 5121 c-144 -91 -85 -392 117 -595 152 -154 301 -167 370 -33
87 170 -55 511 -256 612 -77 40 -181 46 -231 16z m195 -62 c69 -26 153 -153
153 -231 0 -48 -28 -122 -69 -181 -23 -35 -30 -53 -25 -72 4 -15 1 -32 -6 -40
-14 -17 -46 -20 -55 -6 -15 25 -117 362 -122 403 -7 62 11 106 51 124 38 16
38 16 73 3z"/>
<path d="M8764 5026 c-32 -24 -23 -117 28 -281 40 -127 46 -140 68 -143 22 -3
30 7 67 80 51 100 60 147 38 207 -40 113 -140 181 -201 137z"/>
<path d="M8842 4568 c6 -16 36 -34 44 -26 3 4 4 14 1 23 -7 17 -51 21 -45 3z"/>
<path d="M4636 4908 c-3 -7 -6 -39 -9 -70 -3 -44 0 -58 10 -58 9 0 13 18 13
65 0 40 4 65 11 65 7 0 9 -24 7 -70 -2 -52 0 -70 10 -70 10 0 12 18 10 73 -3
66 -5 72 -26 75 -12 2 -24 -3 -26 -10z"/>
<path d="M4618 4580 c-1 -27 -2 -60 -2 -72 -1 -12 4 -23 11 -25 8 -3 12 19 15
71 2 56 0 76 -9 76 -9 0 -14 -18 -15 -50z"/>
<path d="M4660 4546 c0 -41 5 -78 10 -81 6 -4 10 23 10 74 0 47 -4 81 -10 81
-6 0 -10 -31 -10 -74z"/>
<path d="M4620 4266 c0 -73 0 -74 30 -85 28 -9 30 -8 30 13 0 13 3 51 6 85 6
52 4 61 -9 61 -10 0 -15 -8 -15 -22 1 -13 1 -48 0 -78 -2 -44 -5 -51 -13 -37
-6 10 -9 45 -7 78 2 42 -1 59 -9 59 -9 0 -13 -21 -13 -74z"/>
<path d="M8753 4393 c-7 -2 -13 -9 -13 -15 0 -6 7 -8 15 -4 8 3 15 1 15 -5 0
-6 5 -7 10 -4 6 4 18 1 27 -7 13 -10 15 -10 9 0 -4 7 9 3 29 -8 19 -11 43 -20
53 -20 9 0 -10 16 -43 35 -58 34 -77 39 -102 28z"/>
<path d="M8941 4314 c9 -11 9 -14 -1 -14 -8 0 -11 -2 -8 -5 7 -7 38 5 38 15 0
4 -9 10 -21 13 -16 4 -18 3 -8 -9z"/>
<path d="M8610 4020 c14 -11 29 -20 34 -20 5 0 -3 9 -17 20 -14 11 -29 20 -34
20 -4 0 3 -9 17 -20z"/>
<path d="M8767 3515 c-65 -31 -70 -38 -14 -21 46 14 57 12 57 -8 0 -6 -5 -4
-10 4 -5 8 -10 11 -10 5 1 -19 59 -68 74 -62 9 4 18 1 22 -5 4 -7 3 -8 -4 -4
-8 4 -10 2 -6 -8 5 -13 13 -12 57 5 29 12 53 22 54 23 1 1 -27 19 -62 40 -36
21 -68 42 -71 47 -8 14 -35 9 -87 -16z"/>
<path d="M8643 3472 c-24 -9 -43 -19 -43 -23 0 -10 33 -4 60 11 14 8 28 13 33
12 4 -1 7 3 7 8 0 12 -4 12 -57 -8z"/>
<path d="M2628 3533 c-21 -5 -24 -23 -5 -23 7 0 22 7 33 15 20 15 9 18 -28 8z"/>
<path d="M5604 2960 c-32 -13 -37 -27 -17 -48 24 -25 153 -102 170 -102 8 0
27 -7 42 -15 28 -14 29 -14 33 15 3 16 2 33 -1 38 -11 17 -178 122 -192 121
-8 0 -24 -4 -35 -9z"/>
<path d="M4784 2784 c35 -11 51 -13 59 -5 8 8 4 11 -15 11 -14 0 -41 2 -59 5
-26 3 -22 1 15 -11z"/>
<path d="M2757 3353 c-4 -3 -7 -46 -7 -95 l0 -88 57 -25 c31 -14 72 -37 90
-51 44 -33 98 -55 118 -48 13 5 15 18 9 83 -6 68 -10 81 -43 121 -55 67 -124
110 -175 110 -24 0 -46 -3 -49 -7z m131 -200 c16 -16 16 -16 -1 -10 -10 4 -23
7 -28 7 -5 0 -9 5 -9 10 0 15 20 12 38 -7z"/>
<path d="M2860 2715 c0 -5 5 -17 10 -25 5 -8 10 -10 10 -5 0 6 -5 17 -10 25
-5 8 -10 11 -10 5z"/>
<path d="M1354 3078 c-57 -39 -117 -114 -133 -168 -26 -87 -7 -195 38 -220
127 -67 327 180 282 348 -22 80 -102 97 -187 40z"/>
<path d="M808 2767 l-158 -82 0 -242 c0 -134 3 -243 7 -243 7 0 368 191 411
217 21 13 22 18 22 193 0 200 2 194 -67 165 -51 -21 -53 -20 -46 30 3 25 2 45
-3 44 -5 0 -80 -37 -166 -82z m106 -57 c-14 -14 -196 -91 -202 -85 -3 2 15 13
39 24 24 10 69 30 99 44 59 28 80 33 64 17z m36 -27 c0 -5 -55 -36 -121 -70
-74 -38 -114 -54 -102 -41 16 18 196 116 216 117 4 1 7 -2 7 -6z m79 -29 c-7
-9 -47 -33 -89 -54 -42 -21 -100 -52 -129 -69 -57 -34 -64 -36 -59 -20 4 13
257 157 277 158 11 1 11 -2 0 -15z m-24 -84 c-10 -17 -286 -152 -298 -146 -7
2 -4 5 5 5 9 1 21 7 25 14 7 11 248 135 266 136 5 1 5 -4 2 -9z m25 -48 c0 -7
-282 -152 -296 -152 -22 0 27 31 144 90 141 71 152 75 152 62z m-10 -71 c0
-10 -279 -155 -287 -148 -6 6 52 40 182 106 115 58 105 53 105 42z"/>
<path d="M999 2819 c-14 -26 -6 -34 20 -19 25 13 27 26 6 34 -9 3 -19 -3 -26
-15z"/>
<path d="M1045 2268 c-236 -120 -463 -236 -503 -256 l-73 -38 81 -43 c44 -23
80 -38 80 -32 0 5 -10 13 -21 16 -17 6 -19 9 -8 16 10 6 8 9 -8 9 -25 0 -30
19 -11 38 9 9 9 12 -2 12 -11 0 -11 3 -2 12 10 10 15 10 23 -2 8 -12 9 -10 4
7 -5 18 -3 22 9 17 9 -3 16 -2 16 3 0 8 25 13 72 16 9 1 14 6 11 11 -4 5 4 7
17 3 13 -3 30 -1 37 5 10 8 13 7 13 -3 0 -8 10 -20 23 -28 17 -10 19 -11 10 0
-16 16 -17 29 -3 29 10 0 146 -78 270 -156 30 -19 60 -34 65 -34 20 1 -43 47
-142 103 -55 32 -109 67 -119 79 -19 21 -19 21 16 16 19 -3 66 -24 104 -46 38
-22 76 -38 84 -35 8 4 -15 22 -62 47 -42 23 -76 46 -76 52 0 14 28 26 40 19 5
-3 14 3 19 13 6 11 22 22 35 24 14 3 23 2 21 -3 -3 -4 -1 -11 5 -14 6 -4 9 -1
8 5 -2 7 5 17 14 23 14 10 35 3 112 -35 65 -32 97 -44 102 -36 4 7 3 8 -4 4
-7 -4 -12 -2 -12 3 0 6 -9 11 -21 11 -11 0 -18 4 -15 8 3 5 -18 20 -46 33 -57
27 -98 56 -98 70 0 18 28 8 142 -51 82 -43 119 -57 124 -49 4 8 3 9 -4 5 -7
-4 -12 -3 -12 2 0 4 -19 19 -42 31 -115 63 -162 101 -125 101 6 0 63 -25 124
-57 85 -43 115 -54 123 -45 6 6 7 10 4 7 -4 -2 -21 6 -38 19 -17 12 -49 31
-71 41 -68 31 -117 67 -106 78 7 7 25 2 54 -13 50 -27 82 -22 72 10 -4 13 -2
20 7 20 8 0 6 4 -4 11 -25 14 -22 29 5 29 12 0 33 7 47 15 70 40 59 43 178
-36 60 -41 130 -86 156 -101 68 -40 55 -69 -14 -33 -17 9 -30 13 -30 10 0 -11
100 -54 114 -49 27 10 32 -27 7 -47 -18 -15 -27 -17 -44 -8 -49 25 2 -10 58
-40 33 -18 51 -25 41 -17 -11 9 -17 16 -13 16 5 0 2 6 -5 14 -7 8 -16 12 -20
10 -4 -2 0 9 8 26 9 16 22 30 30 30 10 0 13 6 9 19 -5 17 1 18 84 16 50 -1 88
1 86 5 -3 4 -101 61 -217 125 -117 65 -240 133 -274 151 -33 19 -67 34 -75 33
-8 -1 -207 -100 -444 -221z m768 -5 c3 -5 -6 -9 -20 -10 -19 -1 -22 1 -12 8
17 11 26 11 32 2z m-48 -32 c-6 -5 -25 10 -25 20 0 5 6 4 14 -3 8 -7 12 -15
11 -17z m120 -11 c3 -5 1 -10 -4 -10 -6 0 -11 5 -11 10 0 6 2 10 4 10 3 0 8
-4 11 -10z m-28 -18 c8 -5 9 -13 3 -22 -8 -13 -10 -13 -10 2 0 9 -6 19 -12 21
-7 3 -8 6 -3 6 6 0 15 -3 22 -7z m77 -1 c4 -5 -3 -7 -14 -4 -23 6 -26 13 -6
13 8 0 17 -4 20 -9z m-850 -30 c3 -5 -6 -8 -20 -8 -19 0 -22 2 -13 8 18 11 26
11 33 0z m-84 -31 c0 -5 -2 -10 -4 -10 -3 0 -8 5 -11 10 -3 6 -1 10 4 10 6 0
11 -4 11 -10z m-311 -74 c-2 -2 -15 -9 -29 -15 -24 -11 -24 -11 -6 3 16 13 49
24 35 12z"/>
<path d="M1435 2350 c-5 -8 7 -12 31 -9 3 0 11 -6 17 -14 18 -22 130 -80 125
-65 -5 15 -136 98 -155 98 -6 0 -15 -4 -18 -10z"/>
<path d="M1400 2300 c0 -5 5 -10 12 -10 6 0 60 -27 120 -61 60 -33 113 -59
118 -57 12 4 -53 49 -75 52 -9 1 -20 7 -23 12 -11 16 -118 74 -136 74 -9 0
-16 -4 -16 -10z"/>
<path d="M1376 2251 c-8 -13 187 -111 202 -102 8 5 0 13 -24 24 -19 10 -40 14
-46 11 -6 -4 -8 -2 -4 4 3 6 -18 23 -51 41 -61 34 -69 36 -77 22z"/>
<path d="M1620 2251 c0 -9 30 -24 36 -18 2 1 -6 8 -16 15 -11 7 -20 8 -20 3z"/>
<path d="M2075 2160 c3 -5 14 -10 23 -10 15 0 15 2 2 10 -20 13 -33 13 -25 0z"/>
<path d="M2120 2146 c0 -2 8 -10 18 -17 15 -13 16 -12 3 4 -13 16 -21 21 -21
13z"/>
<path d="M1460 2131 c0 -6 7 -7 17 -4 11 4 14 3 9 -5 -4 -7 -2 -12 4 -12 7 0
10 6 8 13 -6 15 -38 22 -38 8z"/>
<path d="M1614 2128 c1 -7 65 -46 142 -86 135 -72 181 -91 169 -71 -4 5 -11 7
-16 4 -5 -4 -9 -1 -9 4 0 6 -4 11 -10 11 -5 0 -31 13 -57 29 -27 16 -55 31
-63 33 -8 2 -17 6 -20 9 -13 15 -98 58 -103 52 -4 -3 -7 -1 -7 6 0 7 -4 10 -9
7 -5 -4 -12 -1 -14 4 -3 6 -4 5 -3 -2z"/>
<path d="M1710 2136 c0 -3 9 -10 20 -16 11 -6 20 -8 20 -6 0 3 -9 10 -20 16
-11 6 -20 8 -20 6z"/>
<path d="M1094 2118 c-4 -7 -2 -8 4 -4 7 4 12 3 12 -1 0 -11 54 -43 80 -48 12
-2 18 0 15 6 -4 5 -11 7 -16 4 -5 -4 -9 -1 -9 5 0 6 -4 8 -10 5 -5 -3 -10 -3
-10 2 0 15 -59 43 -66 31z"/>
<path d="M1526 2102 c-3 -5 20 -20 50 -35 61 -30 64 -31 64 -16 0 5 -4 7 -10
4 -5 -3 -10 -1 -10 5 0 6 -4 8 -10 5 -5 -3 -10 -1 -10 6 0 7 -3 10 -6 7 -3 -4
-14 2 -25 13 -20 20 -35 24 -43 11z"/>
<path d="M1040 2082 c0 -15 28 -23 36 -9 4 7 4 9 -1 5 -4 -4 -14 -3 -22 3 -8
7 -13 8 -13 1z"/>
<path d="M1454 2060 c46 -23 46 -23 46 -10 0 6 -3 9 -7 8 -5 -1 -21 4 -36 10
-44 19 -46 13 -3 -8z"/>
<path d="M1090 2052 c0 -8 85 -55 96 -52 4 1 11 -4 15 -12 6 -9 9 -10 9 -1 0
7 -24 26 -52 43 -55 31 -68 35 -68 22z"/>
<path d="M1350 2049 c0 -5 5 -7 10 -4 6 3 10 8 10 11 0 2 -4 4 -10 4 -5 0 -10
-5 -10 -11z"/>
<path d="M1246 2041 c-3 -5 17 -21 44 -35 31 -16 49 -21 48 -14 -4 16 -40 38
-50 32 -5 -3 -8 -1 -8 5 0 6 -7 7 -17 4 -11 -4 -14 -3 -9 5 4 7 5 12 2 12 -3
0 -7 -4 -10 -9z"/>
<path d="M1460 2000 c-9 -6 -10 -10 -3 -10 6 0 15 5 18 10 8 12 4 12 -15 0z"/>
<path d="M1247 1973 c-4 -6 5 -15 19 -22 18 -8 25 -8 22 0 -2 6 -7 10 -12 9
-5 -1 -12 4 -16 10 -5 7 -10 8 -13 3z"/>
<path d="M1516 1972 c-3 -5 1 -9 9 -9 8 0 12 4 9 9 -3 4 -7 8 -9 8 -2 0 -6 -4
-9 -8z"/>
<path d="M1404 1945 c38 -23 63 -25 50 -4 -3 5 -10 7 -15 3 -5 -3 -21 1 -34
10 -13 9 -28 16 -32 16 -4 0 10 -11 31 -25z"/>
<path d="M1650 1966 c0 -2 7 -7 16 -10 8 -3 12 -2 9 4 -6 10 -25 14 -25 6z"/>
<path d="M1586 1942 c-2 -4 7 -12 20 -19 17 -8 26 -8 31 -1 3 7 1 8 -5 4 -7
-4 -12 -3 -12 2 0 12 -28 24 -34 14z"/>
<path d="M1603 1853 c9 -2 23 -2 30 0 6 3 -1 5 -18 5 -16 0 -22 -2 -12 -5z"/>
<path d="M730 1836 c0 -2 7 -7 16 -10 8 -3 12 -2 9 4 -6 10 -25 14 -25 6z"/>
<path d="M1645 1832 c8 -8 64 -12 69 -4 2 4 -13 7 -35 8 -21 0 -37 -1 -34 -4z"/>
</g>
</svg>
